<svg width="2066" height="566" viewBox="0 0 2066 566" fill="none" xmlns="http://www.w3.org/2000/svg">
<path d="M0 265.333V530.667H47.3333H94.6667V512.667V494.667H65.3333H36V265.333V36H121.333H206.667V94V152H224.667H242.667V76V2.31862e-05H121.333H0V265.333Z" fill="#E3B23C"/>
<path d="M1542 91.4667C1496.93 98.4001 1464.4 113.067 1436.67 138.933C1406.93 166.8 1388 203.067 1381.87 244.133C1379.2 262.533 1379.87 297.6 1383.33 313.333C1395.6 368.8 1428.13 412.133 1476 436.533C1493.2 445.333 1504.67 449.467 1522.8 453.6C1534.67 456.133 1540.4 456.667 1562.67 456.667C1590.67 456.667 1602.13 455.067 1622.27 448.533C1676.67 430.8 1719.2 388.933 1736.53 335.467C1744.4 311.467 1747.6 282.933 1745.33 256.533C1738.27 174.133 1683.2 111.733 1602.4 94.5334C1590.27 92.0001 1551.73 90.0001 1542 91.4667ZM1589.33 144.8C1634.8 153.333 1668.27 185.467 1680.93 232.8C1684.27 245.067 1684.53 248 1684.53 273.333C1684.67 297.467 1684.27 302 1681.6 312.533C1669.47 360.533 1636.93 393.467 1591.47 403.733C1576.67 407.067 1546.53 406.667 1531.6 402.933C1482.8 390.8 1450 352.8 1442 299.467C1430.27 220.4 1470.93 155.6 1539.6 144C1550.93 142.133 1577.73 142.533 1589.33 144.8Z" fill="#E3B23C"/>
<path d="M461.333 274V453.333H490.667H520L520.267 320L520.667 186.8L608.667 320L696.667 453.333H726.4H756V274V94.6667H726.667H697.333L697.067 227.867L696.667 360.933L608.667 227.867L520.667 94.8L491.067 94.6667H461.333V274Z" fill="#E3B23C"/>
<path d="M822.667 274V453.333H922H1021.33V429.333V405.333H952H882.667V350.667V296H944.667H1006.67V272V248H944.667H882.667V195.333V142.667H952H1021.33V118.667V94.6667H922H822.667V274Z" fill="#E3B23C"/>
<path d="M1084 273.867V453.333H1113.33H1142.67V382V310.667H1165.07H1187.33L1228.13 381.733L1268.93 452.667L1304 453.067C1331.73 453.333 1338.8 453.067 1338.27 451.733C1338 450.8 1318.4 417.733 1294.8 378.133C1271.07 338.667 1252.27 305.867 1252.93 305.467C1253.47 304.933 1257.6 303.467 1262 302.133C1274.13 298.533 1291.87 288.8 1300.4 281.2C1314.67 268.533 1325.33 250.533 1330.8 230C1332.93 221.867 1333.73 215.333 1333.73 202.667C1333.73 182.533 1331.6 172.533 1323.07 154.667C1317.87 143.733 1315.33 140.4 1304.8 130C1291.73 116.933 1278.13 108.8 1259.6 102.667C1239.47 96.1334 1234.4 95.7334 1157.07 95.0667L1084 94.4V273.867ZM1231.73 145.867C1252.27 151.067 1265.47 163.467 1271.2 182.533C1274.27 193.067 1274 213.467 1270.67 224.4C1266.53 237.867 1256.67 249.6 1244.4 255.867C1231.73 262.267 1225.73 263.067 1183.07 263.6L1142.67 264.267V203.333V142.4L1183.07 143.067C1213.73 143.6 1225.33 144.267 1231.73 145.867Z" fill="#E3B23C"/>
<path d="M112 374.667V565.333H176.667H241.333V547.333V529.333H300.667H360V356.667V184H236H112V374.667ZM324 356.667V493.333H282.667H241.333V372V250.667H223.333H205.333L205.067 389.6L204.667 528.667H176.667H148.667L148.267 374.267L148 220H236H324V356.667Z" fill="#E3B23C"/>
<path d="M2000.53 270.667C1983.2 273.2 1970.4 281.067 1962.93 293.333C1957.07 303.2 1955.47 309.333 1955.47 322.667C1955.47 337.333 1958.27 345.867 1966.4 354.8C1973.73 362.933 1983.2 367.733 2007.2 375.467C2032.4 383.467 2040 390.4 2040 405.2C2040 422.133 2029.2 432 2010.93 432C1997.07 432 1985.87 423.067 1983.47 410L1982.53 405.333H1968.4H1954.27L1955.2 412.933C1957.73 434.4 1974.13 451.333 1997.07 456.133C2009.6 458.667 2026.27 457.067 2036.27 452.4C2048.67 446.4 2055.07 440.133 2060.93 428.267C2065.87 418.267 2066 417.867 2066 402.8C2066 389.2 2065.6 386.533 2062.8 381.067C2055.87 366.8 2045.73 360.267 2015.73 350C1988.93 340.933 1981.87 334.667 1982.13 320C1982.27 311.2 1985.07 305.333 1991.6 300.4C1998.27 295.333 2012.8 294.4 2020.93 298.533C2027.73 301.867 2034.4 309.867 2035.47 315.6L2036.27 320H2050.93H2065.6L2064.67 314.267C2060.4 288.533 2042.67 272.533 2016 270.267C2011.2 269.867 2004.27 270 2000.53 270.667Z" fill="#E3B23C"/>
<path d="M1844.67 273.6C1842.4 280.133 1788 454.667 1788 455.333C1788 455.733 1794.13 455.867 1801.6 455.733L1815.2 455.333L1820.8 437.333L1826.4 419.333L1860.27 418.933L1894.27 418.667L1900 437.333L1905.73 456H1919.6C1932.27 456 1933.47 455.733 1932.8 453.6C1930.8 447.067 1878.4 280 1877.2 276.267L1875.73 272H1860.53C1849.47 272 1845.07 272.4 1844.67 273.6ZM1874.13 352.667L1886.4 392.667L1860.93 393.067C1847.07 393.2 1835.33 393.2 1835.07 392.8C1834.67 392.4 1848.27 347.067 1858.93 313.333C1859.87 310.4 1860.67 309.333 1861.07 310.667C1861.47 311.733 1867.33 330.667 1874.13 352.667Z" fill="#E3B23C"/>
<path d="M1724.67 417.333C1711.47 422.667 1710.13 448.8 1722.67 455.333C1730.67 459.467 1739.6 457.2 1744.27 449.6C1747.87 443.733 1748.27 431.867 1744.93 425.6C1740.8 418 1731.87 414.267 1724.67 417.333Z" fill="#E3B23C"/>
</svg>
