<?xml version="1.0" standalone="no"?>
<!DOCTYPE svg PUBLIC "-//W3C//DTD SVG 20010904//EN"
 "http://www.w3.org/TR/2001/REC-SVG-20010904/DTD/svg10.dtd">
<svg version="1.0" xmlns="http://www.w3.org/2000/svg"
 width="1673.000000pt" height="983.000000pt" viewBox="0 0 1673.000000 983.000000"
 preserveAspectRatio="xMidYMid meet">

<g transform="translate(0.000000,983.000000) scale(0.100000,-0.100000)"
fill="#ffffff" stroke="none">
<path d="M640 5500 l0 -1990 355 0 355 0 0 135 0 135 -220 0 -220 0 0 1720 0
1720 640 0 640 0 0 -435 0 -435 135 0 135 0 0 570 0 570 -910 0 -910 0 0
-1990z"/>
<path d="M12205 6804 c-338 -52 -582 -162 -790 -356 -223 -209 -365 -481 -411
-789 -20 -138 -15 -401 11 -519 92 -416 336 -741 695 -924 129 -66 215 -97
351 -128 89 -19 132 -23 299 -23 210 0 296 12 447 61 408 133 727 447 857 848
59 180 83 394 66 592 -53 618 -466 1086 -1072 1215 -91 19 -380 34 -453 23z
m355 -400 c341 -64 592 -305 687 -660 25 -92 27 -114 27 -304 1 -181 -2 -215
-22 -294 -91 -360 -335 -607 -676 -684 -111 -25 -337 -22 -449 6 -366 91 -612
376 -672 776 -88 593 217 1079 732 1166 85 14 286 11 373 -6z"/>
<path d="M4100 5435 l0 -1345 220 0 220 0 2 1000 3 999 660 -999 660 -1000
223 0 222 0 0 1345 0 1345 -220 0 -220 0 -2 -999 -3 -998 -660 998 -660 998
-222 1 -223 0 0 -1345z"/>
<path d="M6810 5435 l0 -1345 745 0 745 0 0 180 0 180 -520 0 -520 0 0 410 0
410 465 0 465 0 0 180 0 180 -465 0 -465 0 0 395 0 395 520 0 520 0 0 180 0
180 -745 0 -745 0 0 -1345z"/>
<path d="M8770 5436 l0 -1346 220 0 220 0 0 535 0 535 168 0 167 0 306 -533
306 -532 263 -3 c208 -2 261 0 257 10 -2 7 -149 255 -326 552 -178 296 -319
542 -314 545 4 4 35 15 68 25 91 27 224 100 288 157 107 95 187 230 228 384
16 61 22 110 22 205 0 151 -16 226 -80 360 -39 82 -58 107 -137 185 -98 98
-200 159 -339 205 -151 49 -189 52 -769 57 l-548 5 0 -1346z m1108 960 c154
-39 253 -132 296 -275 23 -79 21 -232 -4 -314 -31 -101 -105 -189 -197 -236
-95 -48 -140 -54 -460 -58 l-303 -5 0 457 0 457 303 -5 c230 -4 317 -9 365
-21z"/>
<path d="M1480 4680 l0 -1430 485 0 485 0 0 135 0 135 445 0 445 0 0 1295 0
1295 -930 0 -930 0 0 -1430z m1590 135 l0 -1025 -310 0 -310 0 0 910 0 910
-135 0 -135 0 -2 -1042 -3 -1043 -210 0 -210 0 -3 1158 -2 1157 660 0 660 0 0
-1025z"/>
<path d="M15644 5460 c-130 -19 -226 -78 -282 -170 -44 -74 -56 -120 -56 -220
0 -110 21 -174 82 -241 55 -61 126 -97 306 -155 189 -60 246 -112 246 -223 0
-127 -81 -201 -218 -201 -104 0 -188 67 -206 165 l-7 35 -106 0 -106 0 7 -57
c19 -161 142 -288 314 -324 94 -19 219 -7 294 28 93 45 141 92 185 181 37 75
38 78 38 191 0 102 -3 122 -24 163 -52 107 -128 156 -353 233 -201 68 -254
115 -252 225 1 66 22 110 71 147 50 38 159 45 220 14 51 -25 101 -85 109 -128
l6 -33 110 0 110 0 -7 43 c-32 193 -165 313 -365 330 -36 3 -88 2 -116 -3z"/>
<path d="M14475 5438 c-17 -49 -425 -1358 -425 -1363 0 -3 46 -4 102 -3 l102
3 42 135 42 135 254 3 255 2 43 -140 43 -140 104 0 c95 0 104 2 99 18 -15 49
-408 1302 -417 1330 l-11 32 -114 0 c-83 0 -116 -3 -119 -12z m221 -593 l92
-300 -191 -3 c-104 -1 -192 -1 -194 2 -3 3 99 343 179 596 7 22 13 30 16 20 3
-8 47 -150 98 -315z"/>
<path d="M13575 4360 c-99 -40 -109 -236 -15 -285 60 -31 127 -14 162 43 27
44 30 133 5 180 -31 57 -98 85 -152 62z"/>
</g>
</svg>
